<?xml version="1.0" encoding="UTF-8" standalone="no"?>
<!DOCTYPE svg PUBLIC "-//W3C//DTD SVG 1.1//EN"
 "http://www.w3.org/Graphics/SVG/1.1/DTD/svg11.dtd">
<!-- Generated by graphviz version 2.38.0 (20140413.2041)
 -->
<!-- Title: MyGraph Pages: 1 -->
<svg width="292pt" height="60pt"
 viewBox="0.00 0.00 292.17 60.00" xmlns="http://www.w3.org/2000/svg" xmlns:xlink="http://www.w3.org/1999/xlink">
<g id="graph0" class="graph" transform="scale(1 1) rotate(0) translate(4 56)">
<title>MyGraph</title>
<polygon fill="white" stroke="none" points="-4,4 -4,-56 288.165,-56 288.165,4 -4,4"/>
<!-- User -->
<g id="node1" class="node"><title>User</title>
<ellipse fill="none" stroke="black" cx="27.2976" cy="-26" rx="27.0966" ry="18"/>
<text text-anchor="middle" x="27.2976" y="-22.3" font-family="Times,serif" font-size="14.00">User</text>
</g>
<!-- Terminal -->
<g id="node2" class="node"><title>Terminal</title>
<polygon fill="none" stroke="black" points="157.595,-44 90.5952,-44 90.5952,-8 157.595,-8 157.595,-44"/>
<text text-anchor="middle" x="124.095" y="-22.3" font-family="Times,serif" font-size="14.00">Terminal</text>
</g>
<!-- User&#45;&gt;Terminal -->
<g id="edge1" class="edge"><title>User&#45;&gt;Terminal</title>
<path fill="none" stroke="black" d="M59.748,-26C67.9024,-26 76.7697,-26 85.2163,-26"/>
<polygon fill="black" stroke="black" points="59.704,-24.2501 54.704,-26 59.704,-27.7501 59.704,-24.2501"/>
<polygon fill="black" stroke="black" points="85.4111,-27.7501 90.4111,-26 85.411,-24.2501 85.4111,-27.7501"/>
</g>
<!-- Kernel -->
<g id="node3" class="node"><title>Kernel</title>
<polygon fill="none" stroke="black" points="275.989,-18.5442 275.989,-33.4558 254.251,-44 223.509,-44 201.771,-33.4558 201.771,-18.5442 223.509,-8 254.251,-8 275.989,-18.5442"/>
<polygon fill="none" stroke="black" points="279.97,-16.0335 279.97,-35.9665 255.162,-48 222.599,-48 197.79,-35.9665 197.79,-16.0335 222.599,-4 255.162,-4 279.97,-16.0335"/>
<polygon fill="none" stroke="black" points="283.951,-13.5228 283.951,-38.4772 256.073,-52 221.688,-52 193.809,-38.4772 193.809,-13.5228 221.688,-3.55271e-15 256.073,-0 283.951,-13.5228"/>
<text text-anchor="middle" x="238.88" y="-22.3" font-family="Times,serif" font-size="14.00">Kernel</text>
</g>
<!-- Terminal&#45;&gt;Kernel -->
<g id="edge2" class="edge"><title>Terminal&#45;&gt;Kernel</title>
<path fill="none" stroke="black" d="M162.794,-26C170.969,-26 179.736,-26 188.291,-26"/>
<polygon fill="black" stroke="black" points="162.717,-24.2501 157.717,-26 162.717,-27.7501 162.717,-24.2501"/>
<polygon fill="black" stroke="black" points="188.583,-27.7501 193.583,-26 188.583,-24.2501 188.583,-27.7501"/>
</g>
</g>
</svg>
