<?xml version="1.0" encoding="UTF-8" standalone="no"?>
<!DOCTYPE svg PUBLIC "-//W3C//DTD SVG 1.1//EN"
 "http://www.w3.org/Graphics/SVG/1.1/DTD/svg11.dtd">
<!-- Generated by graphviz version 2.38.0 (20140413.2041)
 -->
<!-- Title: MyGraph Pages: 1 -->
<svg width="189pt" height="60pt"
 viewBox="0.00 0.00 189.17 60.00" xmlns="http://www.w3.org/2000/svg" xmlns:xlink="http://www.w3.org/1999/xlink">
<g id="graph0" class="graph" transform="scale(1 1) rotate(0) translate(4 56)">
<title>MyGraph</title>
<polygon fill="white" stroke="none" points="-4,4 -4,-56 185.165,-56 185.165,4 -4,4"/>
<!-- User -->
<g id="node1" class="node"><title>User</title>
<ellipse fill="none" stroke="black" cx="27.2976" cy="-26" rx="27.0966" ry="18"/>
<text text-anchor="middle" x="27.2976" y="-22.3" font-family="Times,serif" font-size="14.00">User</text>
</g>
<!-- Kernel -->
<g id="node2" class="node"><title>Kernel</title>
<polygon fill="none" stroke="black" points="172.989,-18.5442 172.989,-33.4558 151.251,-44 120.509,-44 98.7713,-33.4558 98.7713,-18.5442 120.509,-8 151.251,-8 172.989,-18.5442"/>
<polygon fill="none" stroke="black" points="176.97,-16.0335 176.97,-35.9665 152.162,-48 119.599,-48 94.7901,-35.9665 94.7901,-16.0335 119.599,-4 152.162,-4 176.97,-16.0335"/>
<polygon fill="none" stroke="black" points="180.951,-13.5228 180.951,-38.4772 153.073,-52 118.688,-52 90.809,-38.4772 90.809,-13.5228 118.688,-3.55271e-15 153.073,-0 180.951,-13.5228"/>
<text text-anchor="middle" x="135.88" y="-22.3" font-family="Times,serif" font-size="14.00">Kernel</text>
</g>
<!-- User&#45;&gt;Kernel -->
<g id="edge1" class="edge"><title>User&#45;&gt;Kernel</title>
<path fill="none" stroke="black" d="M59.8675,-26C67.8443,-26 76.6044,-26 85.2364,-26"/>
<polygon fill="black" stroke="black" points="59.6439,-24.2501 54.6439,-26 59.6438,-27.7501 59.6439,-24.2501"/>
<polygon fill="black" stroke="black" points="85.5863,-27.7501 90.5863,-26 85.5862,-24.2501 85.5863,-27.7501"/>
</g>
</g>
</svg>
