<?xml version="1.0" encoding="UTF-8" standalone="no"?>
<!DOCTYPE svg PUBLIC "-//W3C//DTD SVG 1.1//EN"
 "http://www.w3.org/Graphics/SVG/1.1/DTD/svg11.dtd">
<!-- Generated by graphviz version 2.38.0 (20140413.2041)
 -->
<!-- Title: MyGraph Pages: 1 -->
<svg width="472pt" height="260pt"
 viewBox="0.00 0.00 472.00 260.00" xmlns="http://www.w3.org/2000/svg" xmlns:xlink="http://www.w3.org/1999/xlink">
<g id="graph0" class="graph" transform="scale(1 1) rotate(0) translate(4 256)">
<title>MyGraph</title>
<polygon fill="white" stroke="none" points="-4,4 -4,-256 468,-256 468,4 -4,4"/>
<!-- User 1 -->
<g id="node1" class="node"><title>User 1</title>
<polygon fill="none" stroke="black" points="54,-180 0,-180 0,-144 54,-144 54,-180"/>
<text text-anchor="middle" x="27" y="-158.3" font-family="Times,serif" font-size="14.00">User 1</text>
</g>
<!-- Notebook A -->
<g id="node2" class="node"><title>Notebook A</title>
<polygon fill="none" stroke="black" points="173,-252 90,-252 90,-216 173,-216 173,-252"/>
<text text-anchor="middle" x="131.5" y="-230.3" font-family="Times,serif" font-size="14.00">Notebook A</text>
</g>
<!-- User 1&#45;&gt;Notebook A -->
<g id="edge1" class="edge"><title>User 1&#45;&gt;Notebook A</title>
<path fill="none" stroke="black" d="M57.958,-183.044C71.2558,-192.385 86.8796,-203.359 100.215,-212.727"/>
<polygon fill="black" stroke="black" points="58.9625,-181.611 53.8651,-180.169 56.9506,-184.475 58.9625,-181.611"/>
<polygon fill="black" stroke="black" points="99.5458,-214.395 104.643,-215.837 101.558,-211.531 99.5458,-214.395"/>
</g>
<!-- Notebook B -->
<g id="node3" class="node"><title>Notebook B</title>
<polygon fill="none" stroke="black" points="173,-180 90,-180 90,-144 173,-144 173,-180"/>
<text text-anchor="middle" x="131.5" y="-158.3" font-family="Times,serif" font-size="14.00">Notebook B</text>
</g>
<!-- User 1&#45;&gt;Notebook B -->
<g id="edge2" class="edge"><title>User 1&#45;&gt;Notebook B</title>
<path fill="none" stroke="black" d="M59.3245,-162C67.2514,-162 75.9315,-162 84.4205,-162"/>
<polygon fill="black" stroke="black" points="59.1303,-160.25 54.1303,-162 59.1303,-163.75 59.1303,-160.25"/>
<polygon fill="black" stroke="black" points="84.6729,-163.75 89.6729,-162 84.6729,-160.25 84.6729,-163.75"/>
</g>
<!-- User 2 -->
<g id="node8" class="node"><title>User 2</title>
<polygon fill="none" stroke="black" points="54,-108 0,-108 0,-72 54,-72 54,-108"/>
<text text-anchor="middle" x="27" y="-86.3" font-family="Times,serif" font-size="14.00">User 2</text>
</g>
<!-- User 1&#45;&gt;User 2 -->
<!-- Notebook A&#45;&gt;Notebook B -->
<!-- Proxy -->
<g id="node4" class="node"><title>Proxy</title>
<polygon fill="none" stroke="black" points="263,-144 209,-144 209,-108 263,-108 263,-144"/>
<text text-anchor="middle" x="236" y="-122.3" font-family="Times,serif" font-size="14.00">Proxy</text>
</g>
<!-- Notebook A&#45;&gt;Proxy -->
<g id="edge3" class="edge"><title>Notebook A&#45;&gt;Proxy</title>
<path fill="none" stroke="black" d="M153.569,-211.801C171.24,-193.182 196.347,-166.727 213.998,-148.128"/>
<polygon fill="black" stroke="black" points="152.06,-210.848 149.888,-215.679 154.599,-213.257 152.06,-210.848"/>
<polygon fill="black" stroke="black" points="215.696,-148.882 217.869,-144.05 213.158,-146.472 215.696,-148.882"/>
</g>
<!-- Notebook B&#45;&gt;Proxy -->
<g id="edge4" class="edge"><title>Notebook B&#45;&gt;Proxy</title>
<path fill="none" stroke="black" d="M177.864,-146.067C186.667,-142.975 195.705,-139.801 203.92,-136.916"/>
<polygon fill="black" stroke="black" points="177.148,-144.464 173.011,-147.772 178.308,-147.766 177.148,-144.464"/>
<polygon fill="black" stroke="black" points="204.782,-138.468 208.919,-135.16 203.622,-135.166 204.782,-138.468"/>
</g>
<!-- Notebook C -->
<g id="node9" class="node"><title>Notebook C</title>
<polygon fill="none" stroke="black" points="173,-108 90,-108 90,-72 173,-72 173,-108"/>
<text text-anchor="middle" x="131.5" y="-86.3" font-family="Times,serif" font-size="14.00">Notebook C</text>
</g>
<!-- Notebook B&#45;&gt;Notebook C -->
<!-- Server 1 -->
<g id="node5" class="node"><title>Server 1</title>
<polygon fill="none" stroke="black" points="361,-180 299,-180 299,-144 361,-144 361,-180"/>
<text text-anchor="middle" x="330" y="-158.3" font-family="Times,serif" font-size="14.00">Server 1</text>
</g>
<!-- Proxy&#45;&gt;Server 1 -->
<g id="edge5" class="edge"><title>Proxy&#45;&gt;Server 1</title>
<path fill="none" stroke="black" d="M267.929,-138.103C276.362,-141.403 285.556,-145 294.189,-148.378"/>
<polygon fill="black" stroke="black" points="268.411,-136.412 263.117,-136.22 267.136,-139.672 268.411,-136.412"/>
<polygon fill="black" stroke="black" points="293.626,-150.037 298.92,-150.229 294.901,-146.778 293.626,-150.037"/>
</g>
<!-- Server 2 -->
<g id="node11" class="node"><title>Server 2</title>
<polygon fill="none" stroke="black" points="361,-108 299,-108 299,-72 361,-72 361,-108"/>
<text text-anchor="middle" x="330" y="-86.3" font-family="Times,serif" font-size="14.00">Server 2</text>
</g>
<!-- Proxy&#45;&gt;Server 2 -->
<g id="edge12" class="edge"><title>Proxy&#45;&gt;Server 2</title>
<path fill="none" stroke="black" d="M267.929,-113.897C276.362,-110.597 285.556,-107 294.189,-103.622"/>
<polygon fill="black" stroke="black" points="267.136,-112.328 263.117,-115.78 268.411,-115.588 267.136,-112.328"/>
<polygon fill="black" stroke="black" points="294.901,-105.222 298.92,-101.771 293.626,-101.963 294.901,-105.222"/>
</g>
<!-- Hub -->
<g id="node14" class="node"><title>Hub</title>
<polygon fill="none" stroke="black" points="263,-72 209,-72 209,-36 263,-36 263,-72"/>
<text text-anchor="middle" x="236" y="-50.3" font-family="Times,serif" font-size="14.00">Hub</text>
</g>
<!-- Proxy&#45;&gt;Hub -->
<g id="edge19" class="edge"><title>Proxy&#45;&gt;Hub</title>
<path fill="none" stroke="black" d="M236,-102.685C236,-94.2225 236,-85.7601 236,-77.2977"/>
<polygon fill="black" stroke="black" points="234.25,-102.954 236,-107.954 237.75,-102.954 234.25,-102.954"/>
<polygon fill="black" stroke="black" points="237.75,-77.2812 236,-72.2812 234.25,-77.2813 237.75,-77.2812"/>
</g>
<!-- Kernel A -->
<g id="node6" class="node"><title>Kernel A</title>
<polygon fill="none" stroke="black" points="464,-252 397,-252 397,-216 464,-216 464,-252"/>
<text text-anchor="middle" x="430.5" y="-230.3" font-family="Times,serif" font-size="14.00">Kernel A</text>
</g>
<!-- Server 1&#45;&gt;Kernel A -->
<g id="edge6" class="edge"><title>Server 1&#45;&gt;Kernel A</title>
<path fill="none" stroke="black" d="M360.154,-183.311C372.866,-192.602 387.733,-203.47 400.434,-212.754"/>
<polygon fill="black" stroke="black" points="360.925,-181.706 355.856,-180.169 358.86,-184.532 360.925,-181.706"/>
<polygon fill="black" stroke="black" points="399.583,-214.299 404.652,-215.837 401.648,-211.474 399.583,-214.299"/>
</g>
<!-- Kernel B -->
<g id="node7" class="node"><title>Kernel B</title>
<polygon fill="none" stroke="black" points="463.5,-180 397.5,-180 397.5,-144 463.5,-144 463.5,-180"/>
<text text-anchor="middle" x="430.5" y="-158.3" font-family="Times,serif" font-size="14.00">Kernel B</text>
</g>
<!-- Server 1&#45;&gt;Kernel B -->
<g id="edge7" class="edge"><title>Server 1&#45;&gt;Kernel B</title>
<path fill="none" stroke="black" d="M366.275,-162C374.629,-162 383.566,-162 392.014,-162"/>
<polygon fill="black" stroke="black" points="366.088,-160.25 361.088,-162 366.088,-163.75 366.088,-160.25"/>
<polygon fill="black" stroke="black" points="392.201,-163.75 397.201,-162 392.201,-160.25 392.201,-163.75"/>
</g>
<!-- User 2&#45;&gt;Notebook C -->
<g id="edge8" class="edge"><title>User 2&#45;&gt;Notebook C</title>
<path fill="none" stroke="black" d="M59.3245,-90C67.2514,-90 75.9315,-90 84.4205,-90"/>
<polygon fill="black" stroke="black" points="59.1303,-88.2501 54.1303,-90 59.1303,-91.7501 59.1303,-88.2501"/>
<polygon fill="black" stroke="black" points="84.6729,-91.7501 89.6729,-90 84.6729,-88.2501 84.6729,-91.7501"/>
</g>
<!-- Notebook D -->
<g id="node10" class="node"><title>Notebook D</title>
<polygon fill="none" stroke="black" points="173,-36 90,-36 90,-0 173,-0 173,-36"/>
<text text-anchor="middle" x="131.5" y="-14.3" font-family="Times,serif" font-size="14.00">Notebook D</text>
</g>
<!-- User 2&#45;&gt;Notebook D -->
<g id="edge9" class="edge"><title>User 2&#45;&gt;Notebook D</title>
<path fill="none" stroke="black" d="M57.958,-68.9563C71.2558,-59.6154 86.8796,-48.6407 100.215,-39.2733"/>
<polygon fill="black" stroke="black" points="56.9506,-67.5253 53.8651,-71.8314 58.9625,-70.3893 56.9506,-67.5253"/>
<polygon fill="black" stroke="black" points="101.558,-40.4689 104.643,-36.1628 99.5458,-37.6049 101.558,-40.4689"/>
</g>
<!-- Notebook C&#45;&gt;Proxy -->
<g id="edge10" class="edge"><title>Notebook C&#45;&gt;Proxy</title>
<path fill="none" stroke="black" d="M177.864,-105.933C186.667,-109.025 195.705,-112.199 203.92,-115.084"/>
<polygon fill="black" stroke="black" points="178.308,-104.234 173.011,-104.228 177.148,-107.536 178.308,-104.234"/>
<polygon fill="black" stroke="black" points="203.622,-116.834 208.919,-116.84 204.782,-113.532 203.622,-116.834"/>
</g>
<!-- Notebook C&#45;&gt;Notebook D -->
<!-- Notebook D&#45;&gt;Proxy -->
<g id="edge11" class="edge"><title>Notebook D&#45;&gt;Proxy</title>
<path fill="none" stroke="black" d="M153.569,-40.1995C171.24,-58.8183 196.347,-85.2726 213.998,-103.872"/>
<polygon fill="black" stroke="black" points="154.599,-38.7427 149.888,-36.3207 152.06,-41.1521 154.599,-38.7427"/>
<polygon fill="black" stroke="black" points="213.158,-105.528 217.869,-107.95 215.696,-103.118 213.158,-105.528"/>
</g>
<!-- Kernel C -->
<g id="node12" class="node"><title>Kernel C</title>
<polygon fill="none" stroke="black" points="463.5,-108 397.5,-108 397.5,-72 463.5,-72 463.5,-108"/>
<text text-anchor="middle" x="430.5" y="-86.3" font-family="Times,serif" font-size="14.00">Kernel C</text>
</g>
<!-- Server 2&#45;&gt;Kernel C -->
<g id="edge13" class="edge"><title>Server 2&#45;&gt;Kernel C</title>
<path fill="none" stroke="black" d="M366.275,-90C374.629,-90 383.566,-90 392.014,-90"/>
<polygon fill="black" stroke="black" points="366.088,-88.2501 361.088,-90 366.088,-91.7501 366.088,-88.2501"/>
<polygon fill="black" stroke="black" points="392.201,-91.7501 397.201,-90 392.201,-88.2501 392.201,-91.7501"/>
</g>
<!-- Kernel D -->
<g id="node13" class="node"><title>Kernel D</title>
<polygon fill="none" stroke="black" points="464,-36 397,-36 397,-0 464,-0 464,-36"/>
<text text-anchor="middle" x="430.5" y="-14.3" font-family="Times,serif" font-size="14.00">Kernel D</text>
</g>
<!-- Server 2&#45;&gt;Kernel D -->
<g id="edge14" class="edge"><title>Server 2&#45;&gt;Kernel D</title>
<path fill="none" stroke="black" d="M360.154,-68.6893C372.866,-59.3977 387.733,-48.5304 400.434,-39.2461"/>
<polygon fill="black" stroke="black" points="358.86,-67.4679 355.856,-71.8314 360.925,-70.2935 358.86,-67.4679"/>
<polygon fill="black" stroke="black" points="401.648,-40.5263 404.652,-36.1628 399.583,-37.7007 401.648,-40.5263"/>
</g>
</g>
</svg>
