<?xml version="1.0" encoding="UTF-8" standalone="no"?>
<!DOCTYPE svg PUBLIC "-//W3C//DTD SVG 1.1//EN"
 "http://www.w3.org/Graphics/SVG/1.1/DTD/svg11.dtd">
<!-- Generated by graphviz version 2.38.0 (20140413.2041)
 -->
<!-- Title: MyGraph Pages: 1 -->
<svg width="728pt" height="314pt"
 viewBox="0.00 0.00 727.51 314.00" xmlns="http://www.w3.org/2000/svg" xmlns:xlink="http://www.w3.org/1999/xlink">
<g id="graph0" class="graph" transform="scale(1 1) rotate(0) translate(4 310)">
<title>MyGraph</title>
<polygon fill="white" stroke="none" points="-4,4 -4,-310 723.506,-310 723.506,4 -4,4"/>
<g id="clust6" class="cluster"><title>cluster_1</title>
<polygon fill="none" stroke="black" points="376.186,-153 376.186,-298 711.506,-298 711.506,-153 376.186,-153"/>
<text text-anchor="middle" x="543.846" y="-282.8" font-family="Times,serif" font-size="14.00">Hub 1</text>
</g>
<g id="clust7" class="cluster"><title>cluster_2</title>
<polygon fill="none" stroke="black" points="376.186,-8 376.186,-153 711.506,-153 711.506,-8 376.186,-8"/>
<text text-anchor="middle" x="543.846" y="-137.8" font-family="Times,serif" font-size="14.00">Hub 2</text>
</g>
<!-- Proxy 1 -->
<g id="node1" class="node"><title>Proxy 1</title>
<path fill="none" stroke="black" d="M410.92,-217.407C410.92,-217.407 385.452,-196.593 385.452,-196.593 380.806,-192.797 380.806,-185.203 385.452,-181.407 385.452,-181.407 410.92,-160.593 410.92,-160.593 415.566,-156.797 424.858,-156.797 429.504,-160.593 429.504,-160.593 454.972,-181.407 454.972,-181.407 459.618,-185.203 459.618,-192.797 454.972,-196.593 454.972,-196.593 429.504,-217.407 429.504,-217.407 424.858,-221.203 415.566,-221.203 410.92,-217.407"/>
<text text-anchor="middle" x="420.212" y="-185.3" font-family="Times,serif" font-size="14.00">Proxy 1</text>
</g>
<!-- Server A -->
<g id="node12" class="node"><title>Server A</title>
<polygon fill="none" stroke="black" points="565.238,-201 500.238,-201 500.238,-165 565.238,-165 565.238,-201"/>
<text text-anchor="middle" x="532.738" y="-179.3" font-family="Times,serif" font-size="14.00">Server A</text>
</g>
<!-- Proxy 1&#45;&gt;Server A -->
<g id="edge4" class="edge"><title>Proxy 1&#45;&gt;Server A</title>
<path fill="none" stroke="black" d="M466.85,-186.523C476.227,-186.013 485.987,-185.484 495.002,-184.994"/>
<polygon fill="black" stroke="black" points="466.638,-184.781 461.74,-186.8 466.828,-188.276 466.638,-184.781"/>
<polygon fill="black" stroke="black" points="495.318,-186.73 500.216,-184.711 495.129,-183.235 495.318,-186.73"/>
</g>
<!-- Server B -->
<g id="node13" class="node"><title>Server B</title>
<polygon fill="none" stroke="black" points="565.238,-263 500.238,-263 500.238,-227 565.238,-227 565.238,-263"/>
<text text-anchor="middle" x="532.738" y="-241.3" font-family="Times,serif" font-size="14.00">Server B</text>
</g>
<!-- Proxy 1&#45;&gt;Server B -->
<g id="edge9" class="edge"><title>Proxy 1&#45;&gt;Server B</title>
<path fill="none" stroke="black" d="M452.493,-204.849C465.881,-211.632 481.599,-219.596 495.491,-226.635"/>
<polygon fill="black" stroke="black" points="453.219,-203.255 447.968,-202.556 451.637,-206.377 453.219,-203.255"/>
<polygon fill="black" stroke="black" points="494.875,-228.284 500.126,-228.983 496.457,-225.162 494.875,-228.284"/>
</g>
<!-- Proxy 2 -->
<g id="node2" class="node"><title>Proxy 2</title>
<path fill="none" stroke="black" d="M410.92,-122.407C410.92,-122.407 385.452,-101.593 385.452,-101.593 380.806,-97.7967 380.806,-90.2033 385.452,-86.4065 385.452,-86.4065 410.92,-65.5935 410.92,-65.5935 415.566,-61.7967 424.858,-61.7967 429.504,-65.5935 429.504,-65.5935 454.972,-86.4065 454.972,-86.4065 459.618,-90.2033 459.618,-97.7967 454.972,-101.593 454.972,-101.593 429.504,-122.407 429.504,-122.407 424.858,-126.203 415.566,-126.203 410.92,-122.407"/>
<text text-anchor="middle" x="420.212" y="-90.3" font-family="Times,serif" font-size="14.00">Proxy 2</text>
</g>
<!-- Server C -->
<g id="node14" class="node"><title>Server C</title>
<polygon fill="none" stroke="black" points="565.238,-57 500.238,-57 500.238,-21 565.238,-21 565.238,-57"/>
<text text-anchor="middle" x="532.738" y="-35.3" font-family="Times,serif" font-size="14.00">Server C</text>
</g>
<!-- Proxy 2&#45;&gt;Server C -->
<g id="edge14" class="edge"><title>Proxy 2&#45;&gt;Server C</title>
<path fill="none" stroke="black" d="M452.738,-78.3123C466.006,-71.7095 481.53,-63.9849 495.287,-57.1391"/>
<polygon fill="black" stroke="black" points="451.947,-76.7511 448.25,-80.5455 453.506,-79.8846 451.947,-76.7511"/>
<polygon fill="black" stroke="black" points="496.182,-58.6484 499.878,-54.8541 494.622,-55.5149 496.182,-58.6484"/>
</g>
<!-- Server D -->
<g id="node15" class="node"><title>Server D</title>
<polygon fill="none" stroke="black" points="565.238,-117 500.238,-117 500.238,-81 565.238,-81 565.238,-117"/>
<text text-anchor="middle" x="532.738" y="-95.3" font-family="Times,serif" font-size="14.00">Server D</text>
</g>
<!-- Proxy 2&#45;&gt;Server D -->
<g id="edge19" class="edge"><title>Proxy 2&#45;&gt;Server D</title>
<path fill="none" stroke="black" d="M467.102,-96.076C476.278,-96.4911 485.81,-96.9223 494.644,-97.3219"/>
<polygon fill="black" stroke="black" points="467.128,-94.3255 462.054,-95.8476 466.97,-97.8219 467.128,-94.3255"/>
<polygon fill="black" stroke="black" points="494.971,-99.0884 500.045,-97.5663 495.129,-95.592 494.971,-99.0884"/>
</g>
<!-- Quantopian -->
<g id="node3" class="node"><title>Quantopian</title>
<path fill="none" stroke="black" d="M270.205,-170.818C270.205,-170.818 230.882,-147.182 230.882,-147.182 225.739,-144.091 225.739,-137.909 230.882,-134.818 230.882,-134.818 270.205,-111.182 270.205,-111.182 275.347,-108.091 285.632,-108.091 290.775,-111.182 290.775,-111.182 330.098,-134.818 330.098,-134.818 335.241,-137.909 335.241,-144.091 330.098,-147.182 330.098,-147.182 290.775,-170.818 290.775,-170.818 285.632,-173.909 275.347,-173.909 270.205,-170.818"/>
<text text-anchor="middle" x="280.49" y="-137.3" font-family="Times,serif" font-size="14.00">Quantopian</text>
</g>
<!-- Quantopian&#45;&gt;Proxy 1 -->
<g id="edge3" class="edge"><title>Quantopian&#45;&gt;Proxy 1</title>
<path fill="none" stroke="black" d="M330.59,-151.616C349.993,-157.868 371.683,-165.689 388.749,-172.669"/>
<polygon fill="black" stroke="black" points="331.12,-149.948 325.824,-150.098 330.057,-153.283 331.12,-149.948"/>
<polygon fill="black" stroke="black" points="388.145,-174.313 393.434,-174.613 389.487,-171.08 388.145,-174.313"/>
</g>
<!-- Quantopian&#45;&gt;Proxy 1 -->
<g id="edge8" class="edge"><title>Quantopian&#45;&gt;Proxy 1</title>
<path fill="none" stroke="black" d="M317.549,-159.585C336.367,-167.053 359.451,-175.161 378.863,-181.144"/>
<polygon fill="black" stroke="black" points="318.033,-157.893 312.741,-157.653 316.728,-161.141 318.033,-157.893"/>
<polygon fill="black" stroke="black" points="378.422,-182.839 383.715,-182.618 379.439,-179.49 378.422,-182.839"/>
</g>
<!-- Quantopian&#45;&gt;Proxy 2 -->
<g id="edge13" class="edge"><title>Quantopian&#45;&gt;Proxy 2</title>
<path fill="none" stroke="black" d="M317.858,-122.557C336.529,-115.295 359.334,-107.45 378.581,-101.648"/>
<polygon fill="black" stroke="black" points="317.097,-120.976 313.086,-124.436 318.38,-124.232 317.097,-120.976"/>
<polygon fill="black" stroke="black" points="379.098,-103.32 383.392,-100.219 378.101,-99.9649 379.098,-103.32"/>
</g>
<!-- Quantopian&#45;&gt;Proxy 2 -->
<g id="edge18" class="edge"><title>Quantopian&#45;&gt;Proxy 2</title>
<path fill="none" stroke="black" d="M330.857,-130.656C350.2,-124.556 371.779,-116.929 388.769,-110.102"/>
<polygon fill="black" stroke="black" points="330.077,-129.066 325.824,-132.224 331.118,-132.408 330.077,-129.066"/>
<polygon fill="black" stroke="black" points="389.465,-111.708 393.434,-108.2 388.143,-108.467 389.465,-111.708"/>
</g>
<!-- User A -->
<g id="node4" class="node"><title>User A</title>
<ellipse fill="none" stroke="black" cx="36.3968" cy="-222" rx="36.2938" ry="18"/>
<text text-anchor="middle" x="36.3968" y="-218.3" font-family="Times,serif" font-size="14.00">User A</text>
</g>
<!-- Browser A -->
<g id="node8" class="node"><title>Browser A</title>
<polygon fill="none" stroke="black" points="184.794,-240 108.794,-240 108.794,-204 184.794,-204 184.794,-240"/>
<text text-anchor="middle" x="146.794" y="-218.3" font-family="Times,serif" font-size="14.00">Browser A</text>
</g>
<!-- User A&#45;&gt;Browser A -->
<g id="edge1" class="edge"><title>User A&#45;&gt;Browser A</title>
<path fill="none" stroke="black" d="M78.0805,-222C86.4088,-222 95.1918,-222 103.573,-222"/>
<polygon fill="black" stroke="black" points="77.89,-220.25 72.8899,-222 77.8899,-223.75 77.89,-220.25"/>
<polygon fill="black" stroke="black" points="103.731,-223.75 108.731,-222 103.731,-220.25 103.731,-223.75"/>
</g>
<!-- User B -->
<g id="node5" class="node"><title>User B</title>
<ellipse fill="none" stroke="black" cx="36.3968" cy="-168" rx="35.9954" ry="18"/>
<text text-anchor="middle" x="36.3968" y="-164.3" font-family="Times,serif" font-size="14.00">User B</text>
</g>
<!-- Browser B -->
<g id="node9" class="node"><title>Browser B</title>
<polygon fill="none" stroke="black" points="184.294,-186 109.294,-186 109.294,-150 184.294,-150 184.294,-186"/>
<text text-anchor="middle" x="146.794" y="-164.3" font-family="Times,serif" font-size="14.00">Browser B</text>
</g>
<!-- User B&#45;&gt;Browser B -->
<g id="edge6" class="edge"><title>User B&#45;&gt;Browser B</title>
<path fill="none" stroke="black" d="M77.3271,-168C85.9375,-168 95.0652,-168 103.753,-168"/>
<polygon fill="black" stroke="black" points="77.2909,-166.25 72.2909,-168 77.2908,-169.75 77.2909,-166.25"/>
<polygon fill="black" stroke="black" points="104.098,-169.75 109.098,-168 104.098,-166.25 104.098,-169.75"/>
</g>
<!-- User C -->
<g id="node6" class="node"><title>User C</title>
<ellipse fill="none" stroke="black" cx="36.3968" cy="-114" rx="35.9954" ry="18"/>
<text text-anchor="middle" x="36.3968" y="-110.3" font-family="Times,serif" font-size="14.00">User C</text>
</g>
<!-- Browser C -->
<g id="node10" class="node"><title>Browser C</title>
<polygon fill="none" stroke="black" points="184.294,-132 109.294,-132 109.294,-96 184.294,-96 184.294,-132"/>
<text text-anchor="middle" x="146.794" y="-110.3" font-family="Times,serif" font-size="14.00">Browser C</text>
</g>
<!-- User C&#45;&gt;Browser C -->
<g id="edge11" class="edge"><title>User C&#45;&gt;Browser C</title>
<path fill="none" stroke="black" d="M77.3271,-114C85.9375,-114 95.0652,-114 103.753,-114"/>
<polygon fill="black" stroke="black" points="77.2909,-112.25 72.2909,-114 77.2908,-115.75 77.2909,-112.25"/>
<polygon fill="black" stroke="black" points="104.098,-115.75 109.098,-114 104.098,-112.25 104.098,-115.75"/>
</g>
<!-- User D -->
<g id="node7" class="node"><title>User D</title>
<ellipse fill="none" stroke="black" cx="36.3968" cy="-60" rx="36.2938" ry="18"/>
<text text-anchor="middle" x="36.3968" y="-56.3" font-family="Times,serif" font-size="14.00">User D</text>
</g>
<!-- Browser D -->
<g id="node11" class="node"><title>Browser D</title>
<polygon fill="none" stroke="black" points="184.794,-78 108.794,-78 108.794,-42 184.794,-42 184.794,-78"/>
<text text-anchor="middle" x="146.794" y="-56.3" font-family="Times,serif" font-size="14.00">Browser D</text>
</g>
<!-- User D&#45;&gt;Browser D -->
<g id="edge16" class="edge"><title>User D&#45;&gt;Browser D</title>
<path fill="none" stroke="black" d="M78.0805,-60C86.4088,-60 95.1918,-60 103.573,-60"/>
<polygon fill="black" stroke="black" points="77.89,-58.2501 72.8899,-60 77.8899,-61.7501 77.89,-58.2501"/>
<polygon fill="black" stroke="black" points="103.731,-61.7501 108.731,-60 103.731,-58.2501 103.731,-61.7501"/>
</g>
<!-- Browser A&#45;&gt;Quantopian -->
<g id="edge2" class="edge"><title>Browser A&#45;&gt;Quantopian</title>
<path fill="none" stroke="black" d="M181.766,-201.105C201.414,-189.021 226.051,-173.868 245.672,-161.8"/>
<polygon fill="black" stroke="black" points="180.691,-199.712 177.349,-203.822 182.525,-202.693 180.691,-199.712"/>
<polygon fill="black" stroke="black" points="246.691,-163.227 250.033,-159.117 244.858,-160.246 246.691,-163.227"/>
</g>
<!-- Browser B&#45;&gt;Quantopian -->
<g id="edge7" class="edge"><title>Browser B&#45;&gt;Quantopian</title>
<path fill="none" stroke="black" d="M189.384,-159.473C202.469,-156.791 217.039,-153.803 230.584,-151.027"/>
<polygon fill="black" stroke="black" points="189.025,-157.76 184.478,-160.479 189.728,-161.189 189.025,-157.76"/>
<polygon fill="black" stroke="black" points="230.976,-152.733 235.522,-150.014 230.273,-149.304 230.976,-152.733"/>
</g>
<!-- Browser C&#45;&gt;Quantopian -->
<g id="edge12" class="edge"><title>Browser C&#45;&gt;Quantopian</title>
<path fill="none" stroke="black" d="M189.384,-122.527C202.469,-125.209 217.039,-128.197 230.584,-130.973"/>
<polygon fill="black" stroke="black" points="189.728,-120.811 184.478,-121.521 189.025,-124.24 189.728,-120.811"/>
<polygon fill="black" stroke="black" points="230.273,-132.696 235.522,-131.986 230.976,-129.267 230.273,-132.696"/>
</g>
<!-- Browser D&#45;&gt;Quantopian -->
<g id="edge17" class="edge"><title>Browser D&#45;&gt;Quantopian</title>
<path fill="none" stroke="black" d="M181.766,-80.895C201.414,-92.9791 226.051,-108.132 245.672,-120.2"/>
<polygon fill="black" stroke="black" points="182.525,-79.3069 177.349,-78.178 180.691,-82.2881 182.525,-79.3069"/>
<polygon fill="black" stroke="black" points="244.858,-121.754 250.033,-122.883 246.691,-118.773 244.858,-121.754"/>
</g>
<!-- Kernel A -->
<g id="node16" class="node"><title>Kernel A</title>
<polygon fill="none" stroke="black" points="703.621,-171.544 703.621,-186.456 675.943,-197 636.801,-197 609.123,-186.456 609.123,-171.544 636.801,-161 675.943,-161 703.621,-171.544"/>
<polygon fill="none" stroke="black" points="707.631,-168.79 707.631,-189.21 676.683,-201 636.062,-201 605.114,-189.21 605.114,-168.79 636.062,-157 676.683,-157 707.631,-168.79"/>
<polygon fill="none" stroke="black" points="711.641,-166.036 711.641,-191.964 677.423,-205 635.322,-205 601.104,-191.964 601.104,-166.036 635.322,-153 677.423,-153 711.641,-166.036"/>
<text text-anchor="middle" x="656.372" y="-175.3" font-family="Times,serif" font-size="14.00">Kernel A</text>
</g>
<!-- Server A&#45;&gt;Kernel A -->
<g id="edge5" class="edge"><title>Server A&#45;&gt;Kernel A</title>
<path fill="none" stroke="black" d="M570.571,-181.789C578.466,-181.529 587.003,-181.248 595.515,-180.968"/>
<polygon fill="black" stroke="black" points="570.318,-180.046 565.379,-181.959 570.434,-183.544 570.318,-180.046"/>
<polygon fill="black" stroke="black" points="595.866,-182.708 600.805,-180.794 595.75,-179.21 595.866,-182.708"/>
</g>
<!-- Kernel B -->
<g id="node17" class="node"><title>Kernel B</title>
<polygon fill="none" stroke="black" points="702.744,-241.544 702.744,-256.456 675.58,-267 637.165,-267 610.001,-256.456 610.001,-241.544 637.165,-231 675.58,-231 702.744,-241.544"/>
<polygon fill="none" stroke="black" points="706.738,-238.805 706.738,-259.195 676.327,-271 636.417,-271 606.006,-259.195 606.006,-238.805 636.417,-227 676.327,-227 706.738,-238.805"/>
<polygon fill="none" stroke="black" points="710.733,-236.065 710.733,-261.935 677.074,-275 635.67,-275 602.011,-261.935 602.011,-236.065 635.67,-223 677.074,-223 710.733,-236.065"/>
<text text-anchor="middle" x="656.372" y="-245.3" font-family="Times,serif" font-size="14.00">Kernel B</text>
</g>
<!-- Server B&#45;&gt;Kernel B -->
<g id="edge10" class="edge"><title>Server B&#45;&gt;Kernel B</title>
<path fill="none" stroke="black" d="M570.437,-246.207C578.604,-246.475 587.464,-246.767 596.276,-247.057"/>
<polygon fill="black" stroke="black" points="570.434,-244.456 565.379,-246.041 570.318,-247.954 570.434,-244.456"/>
<polygon fill="black" stroke="black" points="596.695,-248.821 601.749,-247.237 596.81,-245.323 596.695,-248.821"/>
</g>
<!-- Kernel C -->
<g id="node18" class="node"><title>Kernel C</title>
<polygon fill="none" stroke="black" points="702.744,-26.5442 702.744,-41.4558 675.58,-52 637.165,-52 610.001,-41.4558 610.001,-26.5442 637.165,-16 675.58,-16 702.744,-26.5442"/>
<polygon fill="none" stroke="black" points="706.738,-23.8048 706.738,-44.1952 676.327,-56 636.417,-56 606.006,-44.1952 606.006,-23.8048 636.417,-12 676.327,-12 706.738,-23.8048"/>
<polygon fill="none" stroke="black" points="710.733,-21.0654 710.733,-46.9346 677.074,-60 635.67,-60 602.011,-46.9346 602.011,-21.0654 635.67,-8 677.074,-8 710.733,-21.0654"/>
<text text-anchor="middle" x="656.372" y="-30.3" font-family="Times,serif" font-size="14.00">Kernel C</text>
</g>
<!-- Server C&#45;&gt;Kernel C -->
<g id="edge15" class="edge"><title>Server C&#45;&gt;Kernel C</title>
<path fill="none" stroke="black" d="M570.437,-37.4914C578.604,-37.1557 587.464,-36.7915 596.276,-36.4293"/>
<polygon fill="black" stroke="black" points="570.303,-35.7454 565.379,-37.6994 570.446,-39.2424 570.303,-35.7454"/>
<polygon fill="black" stroke="black" points="596.826,-38.1582 601.749,-36.2043 596.682,-34.6612 596.826,-38.1582"/>
</g>
<!-- Kernel D -->
<g id="node19" class="node"><title>Kernel D</title>
<polygon fill="none" stroke="black" points="703.621,-96.5442 703.621,-111.456 675.943,-122 636.801,-122 609.123,-111.456 609.123,-96.5442 636.801,-86 675.943,-86 703.621,-96.5442"/>
<polygon fill="none" stroke="black" points="707.631,-93.79 707.631,-114.21 676.683,-126 636.062,-126 605.114,-114.21 605.114,-93.79 636.062,-82 676.683,-82 707.631,-93.79"/>
<polygon fill="none" stroke="black" points="711.641,-91.0358 711.641,-116.964 677.423,-130 635.322,-130 601.104,-116.964 601.104,-91.0358 635.322,-78 677.423,-78 711.641,-91.0358"/>
<text text-anchor="middle" x="656.372" y="-100.3" font-family="Times,serif" font-size="14.00">Kernel D</text>
</g>
<!-- Server D&#45;&gt;Kernel D -->
<g id="edge20" class="edge"><title>Server D&#45;&gt;Kernel D</title>
<path fill="none" stroke="black" d="M570.571,-100.514C578.466,-100.839 587.003,-101.19 595.515,-101.539"/>
<polygon fill="black" stroke="black" points="570.446,-98.7576 565.379,-100.301 570.303,-102.255 570.446,-98.7576"/>
<polygon fill="black" stroke="black" points="595.738,-103.3 600.805,-101.757 595.881,-99.8029 595.738,-103.3"/>
</g>
</g>
</svg>
