<?xml version="1.0" encoding="UTF-8" standalone="no"?>
<!DOCTYPE svg PUBLIC "-//W3C//DTD SVG 1.1//EN"
 "http://www.w3.org/Graphics/SVG/1.1/DTD/svg11.dtd">
<!-- Generated by graphviz version 2.38.0 (20140413.2041)
 -->
<!-- Title: MyGraph Pages: 1 -->
<svg width="549pt" height="200pt"
 viewBox="0.00 0.00 549.19 200.00" xmlns="http://www.w3.org/2000/svg" xmlns:xlink="http://www.w3.org/1999/xlink">
<g id="graph0" class="graph" transform="scale(1 1) rotate(0) translate(4 196)">
<title>MyGraph</title>
<polygon fill="white" stroke="none" points="-4,4 -4,-196 545.19,-196 545.19,4 -4,4"/>
<!-- Proxy -->
<g id="node1" class="node"><title>Proxy</title>
<path fill="none" stroke="black" d="M248.799,-123.588C248.799,-123.588 229.288,-104.412 229.288,-104.412 225.009,-100.206 225.009,-91.7942 229.288,-87.5884 229.288,-87.5884 248.799,-68.4116 248.799,-68.4116 253.078,-64.2058 261.637,-64.2058 265.916,-68.4116 265.916,-68.4116 285.427,-87.5884 285.427,-87.5884 289.706,-91.7942 289.706,-100.206 285.427,-104.412 285.427,-104.412 265.916,-123.588 265.916,-123.588 261.637,-127.794 253.078,-127.794 248.799,-123.588"/>
<text text-anchor="middle" x="257.358" y="-92.3" font-family="Times,serif" font-size="14.00">Proxy</text>
</g>
<!-- Server A -->
<g id="node8" class="node"><title>Server A</title>
<polygon fill="none" stroke="black" points="394.922,-176 329.922,-176 329.922,-140 394.922,-140 394.922,-176"/>
<text text-anchor="middle" x="362.422" y="-154.3" font-family="Times,serif" font-size="14.00">Server A</text>
</g>
<!-- Proxy&#45;&gt;Server A -->
<g id="edge3" class="edge"><title>Proxy&#45;&gt;Server A</title>
<path fill="none" stroke="black" d="M285.114,-112.096C297.778,-119.714 313.062,-128.908 326.614,-137.061"/>
<polygon fill="black" stroke="black" points="285.654,-110.378 280.467,-109.301 283.85,-113.378 285.654,-110.378"/>
<polygon fill="black" stroke="black" points="325.951,-138.704 331.138,-139.782 327.755,-135.705 325.951,-138.704"/>
</g>
<!-- Server B -->
<g id="node9" class="node"><title>Server B</title>
<polygon fill="none" stroke="black" points="394.922,-114 329.922,-114 329.922,-78 394.922,-78 394.922,-114"/>
<text text-anchor="middle" x="362.422" y="-92.3" font-family="Times,serif" font-size="14.00">Server B</text>
</g>
<!-- Proxy&#45;&gt;Server B -->
<g id="edge7" class="edge"><title>Proxy&#45;&gt;Server B</title>
<path fill="none" stroke="black" d="M299.363,-96C307.769,-96 316.566,-96 324.806,-96"/>
<polygon fill="black" stroke="black" points="299.115,-94.2501 294.115,-96 299.115,-97.7501 299.115,-94.2501"/>
<polygon fill="black" stroke="black" points="324.856,-97.7501 329.856,-96 324.856,-94.2501 324.856,-97.7501"/>
</g>
<!-- Server C -->
<g id="node10" class="node"><title>Server C</title>
<polygon fill="none" stroke="black" points="394.922,-52 329.922,-52 329.922,-16 394.922,-16 394.922,-52"/>
<text text-anchor="middle" x="362.422" y="-30.3" font-family="Times,serif" font-size="14.00">Server C</text>
</g>
<!-- Proxy&#45;&gt;Server C -->
<g id="edge11" class="edge"><title>Proxy&#45;&gt;Server C</title>
<path fill="none" stroke="black" d="M285.114,-79.9039C297.778,-72.2857 313.062,-63.0916 326.614,-54.9389"/>
<polygon fill="black" stroke="black" points="283.85,-78.6224 280.467,-82.6994 285.654,-81.6216 283.85,-78.6224"/>
<polygon fill="black" stroke="black" points="327.755,-56.2948 331.138,-52.2177 325.951,-53.2956 327.755,-56.2948"/>
</g>
<!-- User A -->
<g id="node2" class="node"><title>User A</title>
<ellipse fill="none" stroke="black" cx="36.3968" cy="-150" rx="36.2938" ry="18"/>
<text text-anchor="middle" x="36.3968" y="-146.3" font-family="Times,serif" font-size="14.00">User A</text>
</g>
<!-- Browser A -->
<g id="node5" class="node"><title>Browser A</title>
<polygon fill="none" stroke="black" points="184.794,-168 108.794,-168 108.794,-132 184.794,-132 184.794,-168"/>
<text text-anchor="middle" x="146.794" y="-146.3" font-family="Times,serif" font-size="14.00">Browser A</text>
</g>
<!-- User A&#45;&gt;Browser A -->
<g id="edge1" class="edge"><title>User A&#45;&gt;Browser A</title>
<path fill="none" stroke="black" d="M78.0805,-150C86.4088,-150 95.1918,-150 103.573,-150"/>
<polygon fill="black" stroke="black" points="77.89,-148.25 72.8899,-150 77.8899,-151.75 77.89,-148.25"/>
<polygon fill="black" stroke="black" points="103.731,-151.75 108.731,-150 103.731,-148.25 103.731,-151.75"/>
</g>
<!-- User B -->
<g id="node3" class="node"><title>User B</title>
<ellipse fill="none" stroke="black" cx="36.3968" cy="-96" rx="35.9954" ry="18"/>
<text text-anchor="middle" x="36.3968" y="-92.3" font-family="Times,serif" font-size="14.00">User B</text>
</g>
<!-- Browser B -->
<g id="node6" class="node"><title>Browser B</title>
<polygon fill="none" stroke="black" points="184.294,-114 109.294,-114 109.294,-78 184.294,-78 184.294,-114"/>
<text text-anchor="middle" x="146.794" y="-92.3" font-family="Times,serif" font-size="14.00">Browser B</text>
</g>
<!-- User B&#45;&gt;Browser B -->
<g id="edge5" class="edge"><title>User B&#45;&gt;Browser B</title>
<path fill="none" stroke="black" d="M77.3271,-96C85.9375,-96 95.0652,-96 103.753,-96"/>
<polygon fill="black" stroke="black" points="77.2909,-94.2501 72.2909,-96 77.2908,-97.7501 77.2909,-94.2501"/>
<polygon fill="black" stroke="black" points="104.098,-97.7501 109.098,-96 104.098,-94.2501 104.098,-97.7501"/>
</g>
<!-- User C -->
<g id="node4" class="node"><title>User C</title>
<ellipse fill="none" stroke="black" cx="36.3968" cy="-42" rx="35.9954" ry="18"/>
<text text-anchor="middle" x="36.3968" y="-38.3" font-family="Times,serif" font-size="14.00">User C</text>
</g>
<!-- Browser C -->
<g id="node7" class="node"><title>Browser C</title>
<polygon fill="none" stroke="black" points="184.294,-60 109.294,-60 109.294,-24 184.294,-24 184.294,-60"/>
<text text-anchor="middle" x="146.794" y="-38.3" font-family="Times,serif" font-size="14.00">Browser C</text>
</g>
<!-- User C&#45;&gt;Browser C -->
<g id="edge9" class="edge"><title>User C&#45;&gt;Browser C</title>
<path fill="none" stroke="black" d="M77.3271,-42C85.9375,-42 95.0652,-42 103.753,-42"/>
<polygon fill="black" stroke="black" points="77.2909,-40.2501 72.2909,-42 77.2908,-43.7501 77.2909,-40.2501"/>
<polygon fill="black" stroke="black" points="104.098,-43.7501 109.098,-42 104.098,-40.2501 104.098,-43.7501"/>
</g>
<!-- Browser A&#45;&gt;Proxy -->
<g id="edge2" class="edge"><title>Browser A&#45;&gt;Proxy</title>
<path fill="none" stroke="black" d="M188.771,-129.618C201.785,-123.144 215.887,-116.13 227.826,-110.192"/>
<polygon fill="black" stroke="black" points="187.943,-128.075 184.246,-131.869 189.502,-131.209 187.943,-128.075"/>
<polygon fill="black" stroke="black" points="228.761,-111.681 232.458,-107.888 227.202,-108.548 228.761,-111.681"/>
</g>
<!-- Browser B&#45;&gt;Proxy -->
<g id="edge6" class="edge"><title>Browser B&#45;&gt;Proxy</title>
<path fill="none" stroke="black" d="M189.825,-96C198.282,-96 207.158,-96 215.573,-96"/>
<polygon fill="black" stroke="black" points="189.548,-94.2501 184.548,-96 189.548,-97.7501 189.548,-94.2501"/>
<polygon fill="black" stroke="black" points="215.744,-97.7501 220.744,-96 215.744,-94.2501 215.744,-97.7501"/>
</g>
<!-- Browser C&#45;&gt;Proxy -->
<g id="edge10" class="edge"><title>Browser C&#45;&gt;Proxy</title>
<path fill="none" stroke="black" d="M188.771,-62.3822C201.785,-68.8556 215.887,-75.8699 227.826,-81.8082"/>
<polygon fill="black" stroke="black" points="189.502,-60.7914 184.246,-60.1314 187.943,-63.9251 189.502,-60.7914"/>
<polygon fill="black" stroke="black" points="227.202,-83.4525 232.458,-84.1124 228.761,-80.3187 227.202,-83.4525"/>
</g>
<!-- Kernel A -->
<g id="node11" class="node"><title>Kernel A</title>
<polygon fill="none" stroke="black" points="533.304,-158.544 533.304,-173.456 505.627,-184 466.484,-184 438.807,-173.456 438.807,-158.544 466.484,-148 505.627,-148 533.304,-158.544"/>
<polygon fill="none" stroke="black" points="537.314,-155.79 537.314,-176.21 506.366,-188 465.745,-188 434.797,-176.21 434.797,-155.79 465.745,-144 506.366,-144 537.314,-155.79"/>
<polygon fill="none" stroke="black" points="541.324,-153.036 541.324,-178.964 507.106,-192 465.005,-192 430.787,-178.964 430.787,-153.036 465.005,-140 507.106,-140 541.324,-153.036"/>
<text text-anchor="middle" x="486.056" y="-162.3" font-family="Times,serif" font-size="14.00">Kernel A</text>
</g>
<!-- Server A&#45;&gt;Kernel A -->
<g id="edge4" class="edge"><title>Server A&#45;&gt;Kernel A</title>
<path fill="none" stroke="black" d="M400.254,-160.423C408.149,-160.942 416.686,-161.503 425.198,-162.063"/>
<polygon fill="black" stroke="black" points="400.166,-158.663 395.062,-160.081 399.936,-162.155 400.166,-158.663"/>
<polygon fill="black" stroke="black" points="425.384,-163.829 430.489,-162.411 425.614,-160.337 425.384,-163.829"/>
</g>
<!-- Kernel B -->
<g id="node12" class="node"><title>Kernel B</title>
<polygon fill="none" stroke="black" points="532.427,-88.5442 532.427,-103.456 505.263,-114 466.848,-114 439.684,-103.456 439.684,-88.5442 466.848,-78 505.263,-78 532.427,-88.5442"/>
<polygon fill="none" stroke="black" points="536.422,-85.8048 536.422,-106.195 506.01,-118 466.101,-118 435.689,-106.195 435.689,-85.8048 466.101,-74 506.01,-74 536.422,-85.8048"/>
<polygon fill="none" stroke="black" points="540.417,-83.0654 540.417,-108.935 506.758,-122 465.353,-122 431.694,-108.935 431.694,-83.0654 465.353,-70 506.758,-70 540.417,-83.0654"/>
<text text-anchor="middle" x="486.056" y="-92.3" font-family="Times,serif" font-size="14.00">Kernel B</text>
</g>
<!-- Server B&#45;&gt;Kernel B -->
<g id="edge8" class="edge"><title>Server B&#45;&gt;Kernel B</title>
<path fill="none" stroke="black" d="M400.12,-96C408.288,-96 417.147,-96 425.959,-96"/>
<polygon fill="black" stroke="black" points="400.062,-94.2501 395.062,-96 400.062,-97.7501 400.062,-94.2501"/>
<polygon fill="black" stroke="black" points="426.433,-97.7501 431.433,-96 426.433,-94.2501 426.433,-97.7501"/>
</g>
<!-- Kernel C -->
<g id="node13" class="node"><title>Kernel C</title>
<polygon fill="none" stroke="black" points="532.427,-18.5442 532.427,-33.4558 505.263,-44 466.848,-44 439.684,-33.4558 439.684,-18.5442 466.848,-8 505.263,-8 532.427,-18.5442"/>
<polygon fill="none" stroke="black" points="536.422,-15.8048 536.422,-36.1952 506.01,-48 466.101,-48 435.689,-36.1952 435.689,-15.8048 466.101,-4 506.01,-4 536.422,-15.8048"/>
<polygon fill="none" stroke="black" points="540.417,-13.0654 540.417,-38.9346 506.758,-52 465.353,-52 431.694,-38.9346 431.694,-13.0654 465.353,-3.55271e-15 506.758,-0 540.417,-13.0654"/>
<text text-anchor="middle" x="486.056" y="-22.3" font-family="Times,serif" font-size="14.00">Kernel C</text>
</g>
<!-- Server C&#45;&gt;Kernel C -->
<g id="edge12" class="edge"><title>Server C&#45;&gt;Kernel C</title>
<path fill="none" stroke="black" d="M400.12,-31.5863C408.288,-31.0491 417.147,-30.4664 425.959,-29.8868"/>
<polygon fill="black" stroke="black" points="399.936,-29.8445 395.062,-31.919 400.166,-33.337 399.936,-29.8445"/>
<polygon fill="black" stroke="black" points="426.558,-31.6013 431.433,-29.5268 426.329,-28.1088 426.558,-31.6013"/>
</g>
</g>
</svg>
