<?xml version="1.0" encoding="UTF-8" standalone="no"?>
<!DOCTYPE svg PUBLIC "-//W3C//DTD SVG 1.1//EN"
 "http://www.w3.org/Graphics/SVG/1.1/DTD/svg11.dtd">
<!-- Generated by graphviz version 2.38.0 (20140413.2041)
 -->
<!-- Title: MyGraph Pages: 1 -->
<svg width="374pt" height="116pt"
 viewBox="0.00 0.00 374.00 116.00" xmlns="http://www.w3.org/2000/svg" xmlns:xlink="http://www.w3.org/1999/xlink">
<g id="graph0" class="graph" transform="scale(1 1) rotate(0) translate(4 112)">
<title>MyGraph</title>
<polygon fill="white" stroke="none" points="-4,4 -4,-112 370,-112 370,4 -4,4"/>
<!-- User -->
<g id="node1" class="node"><title>User</title>
<polygon fill="none" stroke="black" points="54,-72 0,-72 0,-36 54,-36 54,-72"/>
<text text-anchor="middle" x="27" y="-50.3" font-family="Times,serif" font-size="14.00">User</text>
</g>
<!-- Notebook A -->
<g id="node2" class="node"><title>Notebook A</title>
<polygon fill="none" stroke="black" points="173,-108 90,-108 90,-72 173,-72 173,-108"/>
<text text-anchor="middle" x="131.5" y="-86.3" font-family="Times,serif" font-size="14.00">Notebook A</text>
</g>
<!-- User&#45;&gt;Notebook A -->
<g id="edge1" class="edge"><title>User&#45;&gt;Notebook A</title>
<path fill="none" stroke="black" d="M59.0589,-64.9085C67.1927,-67.7652 76.1341,-70.9056 84.8563,-73.969"/>
<polygon fill="black" stroke="black" points="59.4277,-63.1833 54.1303,-63.1775 58.2679,-66.4855 59.4277,-63.1833"/>
<polygon fill="black" stroke="black" points="84.3755,-75.6549 89.6729,-75.6607 85.5353,-72.3527 84.3755,-75.6549"/>
</g>
<!-- Notebook B -->
<g id="node3" class="node"><title>Notebook B</title>
<polygon fill="none" stroke="black" points="173,-36 90,-36 90,-0 173,-0 173,-36"/>
<text text-anchor="middle" x="131.5" y="-14.3" font-family="Times,serif" font-size="14.00">Notebook B</text>
</g>
<!-- User&#45;&gt;Notebook B -->
<g id="edge2" class="edge"><title>User&#45;&gt;Notebook B</title>
<path fill="none" stroke="black" stroke-dasharray="1,5" d="M59.0589,-43.0915C67.1927,-40.2348 76.1341,-37.0944 84.8563,-34.031"/>
<polygon fill="black" stroke="black" points="58.2679,-41.5145 54.1303,-44.8225 59.4277,-44.8167 58.2679,-41.5145"/>
<polygon fill="black" stroke="black" points="85.5353,-35.6473 89.6729,-32.3393 84.3755,-32.3451 85.5353,-35.6473"/>
</g>
<!-- Server -->
<g id="node4" class="node"><title>Server</title>
<polygon fill="none" stroke="black" points="263,-72 209,-72 209,-36 263,-36 263,-72"/>
<text text-anchor="middle" x="236" y="-50.3" font-family="Times,serif" font-size="14.00">Server</text>
</g>
<!-- Notebook A&#45;&gt;Server -->
<g id="edge3" class="edge"><title>Notebook A&#45;&gt;Server</title>
<path fill="none" stroke="black" d="M177.864,-74.0673C186.667,-70.9754 195.705,-67.8012 203.92,-64.9158"/>
<polygon fill="black" stroke="black" points="177.148,-72.4638 173.011,-75.7718 178.308,-75.766 177.148,-72.4638"/>
<polygon fill="black" stroke="black" points="204.782,-66.468 208.919,-63.16 203.622,-63.1658 204.782,-66.468"/>
</g>
<!-- Notebook B&#45;&gt;Server -->
<g id="edge4" class="edge"><title>Notebook B&#45;&gt;Server</title>
<path fill="none" stroke="black" stroke-dasharray="1,5" d="M177.864,-33.9327C186.667,-37.0246 195.705,-40.1988 203.92,-43.0842"/>
<polygon fill="black" stroke="black" points="178.308,-32.234 173.011,-32.2282 177.148,-35.5362 178.308,-32.234"/>
<polygon fill="black" stroke="black" points="203.622,-44.8342 208.919,-44.84 204.782,-41.532 203.622,-44.8342"/>
</g>
<!-- Kernel A -->
<g id="node5" class="node"><title>Kernel A</title>
<polygon fill="none" stroke="black" points="366,-108 299,-108 299,-72 366,-72 366,-108"/>
<text text-anchor="middle" x="332.5" y="-86.3" font-family="Times,serif" font-size="14.00">Kernel A</text>
</g>
<!-- Server&#45;&gt;Kernel A -->
<g id="edge5" class="edge"><title>Server&#45;&gt;Kernel A</title>
<path fill="none" stroke="black" d="M267.835,-65.7465C276.186,-68.9281 285.319,-72.4073 293.994,-75.7119"/>
<polygon fill="black" stroke="black" points="268.368,-64.0771 263.073,-63.9325 267.122,-67.3479 268.368,-64.0771"/>
<polygon fill="black" stroke="black" points="293.463,-77.3822 298.758,-77.5269 294.709,-74.1115 293.463,-77.3822"/>
</g>
<!-- Kernel B -->
<g id="node6" class="node"><title>Kernel B</title>
<polygon fill="none" stroke="black" points="365.5,-36 299.5,-36 299.5,-0 365.5,-0 365.5,-36"/>
<text text-anchor="middle" x="332.5" y="-14.3" font-family="Times,serif" font-size="14.00">Kernel B</text>
</g>
<!-- Server&#45;&gt;Kernel B -->
<g id="edge6" class="edge"><title>Server&#45;&gt;Kernel B</title>
<path fill="none" stroke="black" stroke-dasharray="1,5" d="M267.931,-42.2168C276.454,-38.9699 285.785,-35.4154 294.608,-32.054"/>
<polygon fill="black" stroke="black" points="267.122,-40.6522 263.073,-44.0675 268.368,-43.9229 267.122,-40.6522"/>
<polygon fill="black" stroke="black" points="295.401,-33.6249 299.45,-30.2095 294.155,-30.3542 295.401,-33.6249"/>
</g>
</g>
</svg>
