<?xml version="1.0" encoding="UTF-8" standalone="no"?>
<!DOCTYPE svg PUBLIC "-//W3C//DTD SVG 1.1//EN"
 "http://www.w3.org/Graphics/SVG/1.1/DTD/svg11.dtd">
<!-- Generated by graphviz version 2.38.0 (20140413.2041)
 -->
<!-- Title: MyGraph Pages: 1 -->
<svg width="377pt" height="60pt"
 viewBox="0.00 0.00 377.17 60.00" xmlns="http://www.w3.org/2000/svg" xmlns:xlink="http://www.w3.org/1999/xlink">
<g id="graph0" class="graph" transform="scale(1 1) rotate(0) translate(4 56)">
<title>MyGraph</title>
<polygon fill="white" stroke="none" points="-4,4 -4,-56 373.165,-56 373.165,4 -4,4"/>
<!-- User -->
<g id="node1" class="node"><title>User</title>
<ellipse fill="none" stroke="black" cx="27.2976" cy="-26" rx="27.0966" ry="18"/>
<text text-anchor="middle" x="27.2976" y="-22.3" font-family="Times,serif" font-size="14.00">User</text>
</g>
<!-- Browser -->
<g id="node2" class="node"><title>Browser</title>
<polygon fill="none" stroke="black" points="152.595,-44 90.5952,-44 90.5952,-8 152.595,-8 152.595,-44"/>
<text text-anchor="middle" x="121.595" y="-22.3" font-family="Times,serif" font-size="14.00">Browser</text>
</g>
<!-- User&#45;&gt;Browser -->
<g id="edge1" class="edge"><title>User&#45;&gt;Browser</title>
<path fill="none" stroke="black" d="M60.0353,-26C68.1761,-26 76.982,-26 85.2907,-26"/>
<polygon fill="black" stroke="black" points="59.9939,-24.2501 54.9939,-26 59.9938,-27.7501 59.9939,-24.2501"/>
<polygon fill="black" stroke="black" points="85.3895,-27.7501 90.3894,-26 85.3894,-24.2501 85.3895,-27.7501"/>
</g>
<!-- Server -->
<g id="node3" class="node"><title>Server</title>
<polygon fill="none" stroke="black" points="242.595,-44 188.595,-44 188.595,-8 242.595,-8 242.595,-44"/>
<text text-anchor="middle" x="215.595" y="-22.3" font-family="Times,serif" font-size="14.00">Server</text>
</g>
<!-- Browser&#45;&gt;Server -->
<g id="edge2" class="edge"><title>Browser&#45;&gt;Server</title>
<path fill="none" stroke="black" d="M157.942,-26C166.178,-26 174.897,-26 182.96,-26"/>
<polygon fill="black" stroke="black" points="157.719,-24.2501 152.719,-26 157.719,-27.7501 157.719,-24.2501"/>
<polygon fill="black" stroke="black" points="183.424,-27.7501 188.424,-26 183.424,-24.2501 183.424,-27.7501"/>
</g>
<!-- Kernel -->
<g id="node4" class="node"><title>Kernel</title>
<polygon fill="none" stroke="black" points="360.989,-18.5442 360.989,-33.4558 339.251,-44 308.509,-44 286.771,-33.4558 286.771,-18.5442 308.509,-8 339.251,-8 360.989,-18.5442"/>
<polygon fill="none" stroke="black" points="364.97,-16.0335 364.97,-35.9665 340.162,-48 307.599,-48 282.79,-35.9665 282.79,-16.0335 307.599,-4 340.162,-4 364.97,-16.0335"/>
<polygon fill="none" stroke="black" points="368.951,-13.5228 368.951,-38.4772 341.073,-52 306.688,-52 278.809,-38.4772 278.809,-13.5228 306.688,-3.55271e-15 341.073,-0 368.951,-13.5228"/>
<text text-anchor="middle" x="323.88" y="-22.3" font-family="Times,serif" font-size="14.00">Kernel</text>
</g>
<!-- Server&#45;&gt;Kernel -->
<g id="edge3" class="edge"><title>Server&#45;&gt;Kernel</title>
<path fill="none" stroke="black" d="M247.805,-26C255.765,-26 264.521,-26 273.156,-26"/>
<polygon fill="black" stroke="black" points="247.595,-24.2501 242.595,-26 247.595,-27.7501 247.595,-24.2501"/>
<polygon fill="black" stroke="black" points="273.508,-27.7501 278.508,-26 273.508,-24.2501 273.508,-27.7501"/>
</g>
</g>
</svg>
